<svg width="80" height="80" viewBox="0 0 80 80" fill="none" xmlns="http://www.w3.org/2000/svg">
<path fill-rule="evenodd" clip-rule="evenodd" d="M21.399 74.0765C20.0431 74.0765 19.1956 73.0477 19.1956 71.3646C19.1956 63.4116 34.9763 45.3468 50.7186 30.0341C48.0569 47.2317 30.4703 74.0765 21.399 74.0765ZM77.8885 3.00579C75.7222 3.058 71.2781 3.22613 67.3797 3.28207C66.0083 3.30173 65.4605 3.91783 65.6363 4.80223C65.8434 5.84444 66.5302 6.61613 67.5636 6.64342C68.8942 6.67868 70.6764 6.45647 72.9615 6.3441C67.7668 10.341 61.4815 15.5946 54.9969 21.4397C54.2353 15.5592 51.509 10.8561 46.1447 10.8561C38.3481 10.8561 30.5515 22.7205 27.1617 29.3307C26.8227 23.907 24.4498 18.8222 19.3651 18.8222C8.79356 18.8222 0 42.8782 0 46.478C0 47.7087 1.40746 48.6527 2.25492 48.6527C3.27186 48.6527 3.60237 48.1443 3.94136 46.9578C8.34814 32.551 14.9583 22.551 19.3651 22.551C21.5685 22.551 23.2634 25.0934 23.2634 31.0256C23.2634 35.3904 22.5198 38.0405 22.5198 39.0748C22.5198 40.6909 23.9414 41.5341 24.7888 41.5341C25.8058 41.5341 26.1447 41.0256 26.6532 39.8392C31.738 27.2968 40.0431 14.7544 45.9753 14.7544C48.8964 14.7544 50.8837 18.4858 51.0476 25.0516C33.262 41.5522 15.3427 61.4361 15.3427 71.2178C15.3427 75.2888 17.5875 77.6358 21.2295 77.6358C34.3054 77.6358 54.7702 45.1377 55.2156 25.7321C62.4924 18.8851 69.431 12.9061 74.4244 9.10173C73.6556 11.0094 72.8807 12.8648 72.4864 14.2497C72.1978 15.2629 72.3736 16.377 73.6188 16.8612C74.4063 17.1675 75.1081 16.7236 75.4168 15.8434C77.2932 10.4894 78.26 8.29325 79.4078 5.23003C80.1585 3.22647 80.0783 2.95308 77.8885 3.00579Z" fill="#0B3B3C"/>
</svg>
